<?xml version="1.0" encoding="utf-8"?>
<!-- Generator: Adobe Illustrator 15.0.2, SVG Export Plug-In . SVG Version: 6.00 Build 0)  -->
<!DOCTYPE svg PUBLIC "-//W3C//DTD SVG 1.1//EN" "http://www.w3.org/Graphics/SVG/1.1/DTD/svg11.dtd">
<svg version="1.1" id="Calque_1" xmlns="http://www.w3.org/2000/svg" xmlns:xlink="http://www.w3.org/1999/xlink" x="0px" y="0px"
	 width="358px" height="78.5px" viewBox="0 0 358 78.5" enable-background="new 0 0 358 78.5" xml:space="preserve">
<g>
	<g>
		<polygon fill="#EE7F00" points="33.303,1.61 48.199,16.513 61.373,29.681 76.271,44.579 76.271,1.61 		"/>
	</g>
	<g>
		<polyline fill="#F8B55B" points="1,31.411 46.475,76.89 46.475,48.085 29.799,31.411 1,31.411 		"/>
	</g>
	<g>
		<polygon fill="#F29400" points="44.633,16.513 18.473,16.513 33.369,31.411 46.475,44.513 61.373,59.411 61.373,33.255 		"/>
	</g>
</g>
<g>
	<g>
		<path fill="#EF8214" d="M101.557,40.271c0-2.596-0.047-4.774-0.186-6.722h5.007l0.277,3.384h0.14
			c0.974-1.762,3.431-3.894,7.186-3.894c3.939,0,8.02,2.55,8.02,9.688v13.396h-5.702V43.377c0-3.244-1.205-5.701-4.312-5.701
			c-2.271,0-3.847,1.622-4.45,3.337c-0.185,0.511-0.231,1.206-0.231,1.854v13.258h-5.748V40.271z"/>
		<path fill="#EF8214" d="M132.107,46.437c0.139,4.08,3.337,5.841,6.953,5.841c2.643,0,4.543-0.37,6.258-1.02l0.835,3.94
			c-1.947,0.788-4.636,1.391-7.881,1.391c-7.324,0-11.636-4.497-11.636-11.403c0-6.259,3.802-12.146,11.033-12.146
			c7.324,0,9.734,6.026,9.734,10.986c0,1.066-0.093,1.9-0.185,2.41H132.107z M142.027,42.45c0.046-2.086-0.881-5.517-4.682-5.517
			c-3.523,0-5.007,3.199-5.238,5.517H142.027z"/>
		<path fill="#EF8214" d="M155.426,33.55l2.689,4.265c0.741,1.205,1.391,2.318,2.039,3.477h0.14c0.648-1.251,1.298-2.41,1.946-3.569
			l2.504-4.172h6.211l-7.556,10.848l7.695,11.728h-6.443l-2.781-4.496c-0.742-1.205-1.392-2.411-2.04-3.662h-0.093
			c-0.649,1.298-1.298,2.41-2.04,3.662l-2.596,4.496h-6.305l7.835-11.496l-7.557-11.079H155.426z"/>
		<path fill="#EF8214" d="M181.664,27.106v6.443h5.424v4.265h-5.424v9.967c0,2.735,0.742,4.172,2.921,4.172
			c0.973,0,1.715-0.139,2.225-0.278l0.093,4.357c-0.834,0.325-2.317,0.557-4.126,0.557c-2.086,0-3.848-0.695-4.913-1.854
			c-1.206-1.298-1.762-3.338-1.762-6.305V37.814h-3.245V33.55h3.245v-5.1L181.664,27.106z"/>
		<path fill="#FFFFFF" d="M193.324,35.866c1.313-1.252,2.738-2.187,4.276-2.805c1.537-0.618,3.226-0.928,5.064-0.928
			c1.345,0,2.534,0.221,3.57,0.661c1.035,0.44,1.908,1.055,2.619,1.843s1.248,1.73,1.611,2.828c0.362,1.097,0.544,2.31,0.544,3.639
			v15.021h-2.017c-0.448,0-0.788-0.073-1.02-0.22s-0.417-0.421-0.557-0.823l-0.486-2.063c-0.603,0.556-1.198,1.047-1.785,1.472
			s-1.201,0.788-1.843,1.089c-0.642,0.302-1.325,0.53-2.051,0.685c-0.727,0.154-1.53,0.231-2.411,0.231
			c-0.928,0-1.797-0.128-2.607-0.383c-0.812-0.255-1.519-0.645-2.121-1.17s-1.078-1.183-1.426-1.971s-0.521-1.707-0.521-2.758
			c0-0.928,0.251-1.82,0.753-2.678s1.321-1.626,2.457-2.307c1.136-0.68,2.62-1.236,4.451-1.669s4.083-0.68,6.757-0.741v-1.716
			c0-1.776-0.379-3.105-1.136-3.986c-0.758-0.881-1.87-1.321-3.338-1.321c-0.989,0-1.82,0.123-2.492,0.37
			c-0.672,0.248-1.252,0.521-1.738,0.823c-0.487,0.302-0.912,0.576-1.275,0.823s-0.737,0.37-1.124,0.37
			c-0.31,0-0.576-0.084-0.8-0.255c-0.224-0.17-0.405-0.37-0.545-0.603L193.324,35.866z M206.583,45.671
			c-1.839,0.063-3.4,0.205-4.683,0.429c-1.283,0.225-2.326,0.521-3.129,0.893c-0.804,0.371-1.384,0.808-1.738,1.31
			c-0.356,0.503-0.533,1.063-0.533,1.681c0,0.588,0.096,1.094,0.289,1.519s0.456,0.772,0.788,1.043s0.723,0.468,1.171,0.591
			c0.448,0.124,0.935,0.186,1.46,0.186c0.695,0,1.333-0.069,1.913-0.208c0.579-0.14,1.124-0.337,1.634-0.592s0.997-0.567,1.46-0.938
			c0.464-0.371,0.92-0.796,1.368-1.275V45.671z"/>
		<path fill="#FFFFFF" d="M236.809,21.912v34.213h-2.734c-0.635,0-1.028-0.301-1.183-0.903l-0.395-2.713
			c-1.004,1.19-2.144,2.145-3.419,2.863c-1.274,0.719-2.746,1.078-4.415,1.078c-1.345,0-2.562-0.264-3.651-0.788
			c-1.089-0.525-2.021-1.295-2.793-2.307c-0.773-1.012-1.367-2.268-1.785-3.767c-0.417-1.499-0.626-3.223-0.626-5.17
			c0-1.746,0.232-3.368,0.695-4.867c0.464-1.499,1.137-2.797,2.018-3.895c0.88-1.097,1.946-1.959,3.198-2.584
			c1.252-0.626,2.666-0.939,4.242-0.939c1.422,0,2.631,0.232,3.628,0.695c0.996,0.464,1.889,1.121,2.677,1.971V21.912H236.809z
			 M232.266,38.276c-0.741-0.974-1.541-1.653-2.399-2.039c-0.857-0.387-1.819-0.58-2.886-0.58c-2.07,0-3.674,0.746-4.81,2.237
			s-1.704,3.666-1.704,6.524c0,1.5,0.128,2.778,0.383,3.837s0.626,1.924,1.112,2.596c0.487,0.673,1.086,1.167,1.797,1.483
			c0.711,0.317,1.515,0.476,2.41,0.476c1.313,0,2.449-0.293,3.408-0.881c0.958-0.587,1.854-1.414,2.688-2.48V38.276z"/>
		<path fill="#FFFFFF" d="M263.582,32.574l-9.55,23.551h-4.08l-9.55-23.551h3.732c0.354,0,0.648,0.085,0.88,0.255
			c0.232,0.171,0.387,0.387,0.464,0.649l5.633,14.464c0.201,0.604,0.375,1.202,0.521,1.797s0.282,1.187,0.406,1.773
			c0.123-0.587,0.262-1.175,0.417-1.762c0.154-0.587,0.34-1.19,0.556-1.809l5.703-14.464c0.093-0.263,0.255-0.479,0.486-0.649
			c0.231-0.17,0.51-0.255,0.835-0.255H263.582z"/>
		<path fill="#FFFFFF" d="M266.063,35.866c1.313-1.252,2.738-2.187,4.276-2.805c1.537-0.618,3.226-0.928,5.064-0.928
			c1.345,0,2.534,0.221,3.57,0.661c1.035,0.44,1.908,1.055,2.619,1.843s1.248,1.73,1.611,2.828c0.362,1.097,0.544,2.31,0.544,3.639
			v15.021h-2.017c-0.448,0-0.788-0.073-1.02-0.22s-0.417-0.421-0.557-0.823l-0.486-2.063c-0.603,0.556-1.198,1.047-1.785,1.472
			s-1.201,0.788-1.843,1.089c-0.642,0.302-1.325,0.53-2.051,0.685c-0.727,0.154-1.53,0.231-2.411,0.231
			c-0.928,0-1.797-0.128-2.607-0.383c-0.812-0.255-1.519-0.645-2.121-1.17s-1.078-1.183-1.426-1.971s-0.521-1.707-0.521-2.758
			c0-0.928,0.251-1.82,0.753-2.678s1.321-1.626,2.457-2.307c1.136-0.68,2.62-1.236,4.451-1.669s4.083-0.68,6.757-0.741v-1.716
			c0-1.776-0.379-3.105-1.136-3.986c-0.758-0.881-1.87-1.321-3.338-1.321c-0.989,0-1.82,0.123-2.492,0.37
			c-0.672,0.248-1.252,0.521-1.738,0.823c-0.487,0.302-0.912,0.576-1.275,0.823s-0.737,0.37-1.124,0.37
			c-0.31,0-0.576-0.084-0.8-0.255c-0.224-0.17-0.405-0.37-0.545-0.603L266.063,35.866z M279.321,45.671
			c-1.839,0.063-3.4,0.205-4.683,0.429c-1.283,0.225-2.326,0.521-3.129,0.893c-0.804,0.371-1.384,0.808-1.738,1.31
			c-0.356,0.503-0.533,1.063-0.533,1.681c0,0.588,0.096,1.094,0.289,1.519s0.456,0.772,0.788,1.043s0.723,0.468,1.171,0.591
			c0.448,0.124,0.935,0.186,1.46,0.186c0.695,0,1.333-0.069,1.913-0.208c0.579-0.14,1.124-0.337,1.634-0.592s0.997-0.567,1.46-0.938
			c0.464-0.371,0.92-0.796,1.368-1.275V45.671z"/>
		<path fill="#FFFFFF" d="M294.064,35.843c0.51-0.541,1.043-1.035,1.599-1.483c0.557-0.448,1.147-0.83,1.773-1.147
			c0.626-0.316,1.298-0.563,2.017-0.742c0.719-0.177,1.487-0.267,2.307-0.267c1.298,0,2.438,0.217,3.419,0.649
			s1.804,1.039,2.469,1.819c0.664,0.781,1.167,1.72,1.507,2.816c0.34,1.098,0.51,2.311,0.51,3.64v14.997h-4.543V41.128
			c0-1.685-0.387-2.994-1.159-3.929c-0.772-0.936-1.955-1.402-3.547-1.402c-1.158,0-2.244,0.274-3.257,0.822
			c-1.012,0.549-1.951,1.295-2.816,2.237v17.269h-4.52V32.574h2.712c0.634,0,1.027,0.302,1.183,0.904L294.064,35.843z"/>
		<path fill="#FFFFFF" d="M332.264,36.979c-0.139,0.17-0.274,0.306-0.405,0.406c-0.132,0.101-0.321,0.15-0.568,0.15
			s-0.506-0.097-0.776-0.29s-0.61-0.401-1.02-0.626c-0.41-0.224-0.904-0.433-1.484-0.626c-0.579-0.192-1.294-0.289-2.144-0.289
			c-1.112,0-2.095,0.2-2.944,0.603c-0.85,0.401-1.557,0.974-2.121,1.715c-0.563,0.742-0.992,1.646-1.286,2.712
			c-0.294,1.066-0.44,2.265-0.44,3.594c0,1.375,0.154,2.6,0.464,3.674c0.309,1.074,0.749,1.978,1.321,2.712
			c0.571,0.734,1.267,1.29,2.086,1.669s1.73,0.567,2.735,0.567c0.974,0,1.777-0.119,2.411-0.359
			c0.633-0.239,1.158-0.498,1.576-0.776c0.417-0.278,0.765-0.536,1.043-0.776c0.278-0.239,0.563-0.359,0.857-0.359
			c0.371,0,0.656,0.14,0.857,0.417l1.298,1.669c-0.541,0.665-1.146,1.229-1.819,1.692c-0.672,0.464-1.387,0.843-2.144,1.136
			c-0.758,0.294-1.55,0.511-2.376,0.649c-0.827,0.139-1.666,0.209-2.516,0.209c-1.468,0-2.839-0.271-4.114-0.812
			c-1.274-0.541-2.38-1.329-3.314-2.364c-0.936-1.035-1.673-2.307-2.214-3.813s-0.812-3.218-0.812-5.134
			c0-1.746,0.243-3.361,0.73-4.845c0.486-1.483,1.205-2.763,2.155-3.837c0.951-1.073,2.121-1.916,3.512-2.526
			c1.392-0.61,2.982-0.916,4.775-0.916c1.685,0,3.168,0.271,4.45,0.812c1.283,0.541,2.427,1.307,3.431,2.295L332.264,36.979z"/>
		<path fill="#FFFFFF" d="M356.857,52.764c-0.557,0.649-1.198,1.21-1.924,1.681c-0.727,0.472-1.499,0.854-2.318,1.147
			c-0.819,0.294-1.665,0.511-2.538,0.649s-1.734,0.209-2.585,0.209c-1.622,0-3.125-0.275-4.508-0.823
			c-1.384-0.549-2.581-1.353-3.593-2.411c-1.013-1.058-1.801-2.372-2.364-3.94c-0.564-1.568-0.847-3.372-0.847-5.412
			c0-1.638,0.255-3.164,0.765-4.578c0.511-1.414,1.24-2.646,2.191-3.697c0.95-1.051,2.112-1.878,3.488-2.48
			c1.375-0.603,2.921-0.904,4.636-0.904c1.438,0,2.762,0.236,3.976,0.707c1.213,0.472,2.26,1.156,3.141,2.052
			c0.881,0.896,1.572,2.002,2.074,3.314c0.503,1.314,0.754,2.813,0.754,4.497c0,0.695-0.077,1.163-0.231,1.402
			c-0.155,0.24-0.44,0.359-0.858,0.359h-15.438c0.046,1.406,0.247,2.631,0.603,3.674s0.847,1.913,1.472,2.608
			c0.626,0.695,1.372,1.213,2.237,1.553s1.831,0.51,2.897,0.51c1.004,0,1.874-0.116,2.607-0.348
			c0.734-0.231,1.368-0.482,1.901-0.753s0.98-0.521,1.344-0.754c0.363-0.231,0.685-0.348,0.962-0.348
			c0.371,0,0.657,0.14,0.858,0.417L356.857,52.764z M353.125,41.73c0-0.896-0.127-1.723-0.382-2.48
			c-0.255-0.757-0.63-1.414-1.125-1.97c-0.494-0.557-1.097-0.989-1.808-1.299c-0.711-0.309-1.53-0.463-2.457-0.463
			c-1.9,0-3.396,0.549-4.485,1.646c-1.09,1.098-1.781,2.619-2.074,4.566H353.125z"/>
	</g>
</g>
</svg>
